<?xml version="1.0" encoding="utf-8"?><svg width="127" height="102" viewBox="0 0 127 102" xmlns="http://www.w3.org/2000/svg" xmlns:xlink="http://www.w3.org/1999/xlink"><svg width="19" height="25" fill="none" viewBox="-5 -5 19 25" id="arrow_next" y="77" xmlns="http://www.w3.org/2000/svg"><path d="M7.436 7.5L.662 14.275a.423.423 0 000 .6.423.423 0 00.6 0l7.076-7.076a.423.423 0 000-.6L1.262.126a.414.414 0 00-.597 0 .423.423 0 000 .6L7.436 7.5z" fill="#fff"/></svg><svg width="19" height="25" fill="none" viewBox="-5 -5 19 25" id="arrow_prev" x="19" y="77" xmlns="http://www.w3.org/2000/svg"><path d="M1.564 7.5L8.338.725a.423.423 0 000-.6.423.423 0 00-.6 0L.662 7.201a.423.423 0 000 .6l7.076 7.073a.414.414 0 00.597 0 .423.423 0 000-.6L1.564 7.5z" fill="#fff"/></svg><svg width="27" height="27" fill="none" viewBox="-5 -5 27 27" id="clock" x="100" xmlns="http://www.w3.org/2000/svg"><path d="M8.5 0A8.5 8.5 0 1017 8.5 8.51 8.51 0 008.5 0zm.365 16.253v-1.496a.365.365 0 00-.73 0v1.496A7.767 7.767 0 01.748 8.865h1.495a.365.365 0 000-.73H.748A7.767 7.767 0 018.135.748v1.495a.365.365 0 00.73 0V.748a7.767 7.767 0 017.388 7.387h-1.496a.365.365 0 000 .73h1.499a7.767 7.767 0 01-7.391 7.388z" fill="#005FA3"/><path d="M12.347 11.891l-3.482-3.54V4.67a.365.365 0 00-.73 0V8.5c0 .096.039.187.106.255l3.585 3.647a.365.365 0 00.521-.51z" fill="#005FA3"/></svg><svg width="50" height="50" fill="none" viewBox="-5 -5 50 50" id="logo" xmlns="http://www.w3.org/2000/svg"><path d="M32.584 4.45c-.023-.024-.07-.047-.093-.093.023.046.07.07.093.093zM32.144 4.102c.116.093.231.185.347.255-.116-.07-.231-.162-.347-.255-.023-.023-.07-.046-.093-.07l-.046-.023.046.023c.023.024.07.047.093.07zM31.958 3.963l-.07-.046.07.046zM31.703 3.778l.047.046c0-.023-.023-.023-.047-.046l-.046-.024.046.024zM31.68 3.754zM31.263 3.476c-.046-.023-.07-.046-.116-.07.047.024.093.047.116.07zM23.29.278c-.069-.023-.161-.023-.23-.046-.047 0-.07 0-.117-.023.047 0 .07 0 .116.023.07 0 .162.023.232.046zM28.459 1.877c-.209-.093-.394-.185-.58-.255.21.07.394.162.58.255zM30.776 3.152c.047.023.093.046.116.07-.023-.024-.07-.047-.116-.07zM26.072.927c-.046-.023-.093-.023-.14-.046-.045-.024-.092-.024-.138-.047.046.023.093.023.139.047.023.023.07.046.139.046zM25.307.718c-.023-.023-.046-.023-.07-.023h-.023.024c.023 0 .046 0 .07.023zM27.74 1.553c.07.023.116.046.14.07-.047-.024-.07-.047-.14-.07zM30.267 2.827l.092.07c.07.046.14.07.186.116-.07-.047-.116-.07-.186-.116l-.093-.07c-.023 0-.023-.023-.046-.023.023.023.023.023.047.023zM32.746 4.589c-.046-.047-.093-.07-.139-.116.047.046.093.07.14.116zM29.988 2.665l.14.07-.14-.07-.023-.023c-.023 0-.023-.023-.046-.023.023 0 .023.023.046.023l.023.023zM28.505 1.9l.162.093c.07.023.14.07.186.093-.07-.023-.14-.07-.186-.093l-.162-.093s0-.023 0 0c0-.023 0 0 0 0zM27.022 1.275c.14.046.301.115.487.185.023 0 .023 0 .046.023-.023 0-.023 0-.046-.023-.186-.07-.348-.14-.487-.185l-.093-.024h-.023.023l.093.024zM.209 17.103c0-.023 0-.07.023-.093v-.023.023c-.023.024-.023.047-.023.093zM.116 17.775v-.07c.023.024 0 .047 0 .07zM.046 18.54v-.023.023c0 .07-.023.162-.023.232.023-.093.023-.162.023-.232zM10.452 26.72c0 .024.023.047.023.047-.023 0-.023-.023-.023-.046zM20.742.023c.44.023.903.046 1.344.093-.44-.047-.88-.093-1.344-.093zM24.195.44c.139.023.255.047.37.093-.115-.046-.254-.07-.37-.093zM28.9 2.086c.3.139.579.301.857.463-.279-.162-.557-.324-.858-.463zM33.024 4.82c-.046-.023-.07-.07-.116-.092l-.07-.07.07.07c.047.023.093.07.116.092zM13.465 8.714c1.715-1.831 3.8-3.268 6.164-4.172.719-.278 1.437-.51 2.179-.672-.742.186-1.46.394-2.179.672a16.438 16.438 0 00-6.164 4.172zM17.01 34.183a16.494 16.494 0 01-5.029-4.704 15.74 15.74 0 01-1.274-2.179c.37.742.788 1.483 1.274 2.178a17.08 17.08 0 005.03 4.705zM4.287 30.267C1.576 27.578.07 24.009 0 20.209v-.117-.046.163c.07 3.8 1.576 7.37 4.287 10.058zM33.465 5.214c.046.047.07.07.115.093-.023-.023-.069-.046-.115-.093l-.047-.046-.023-.023.023.023.047.046zM34.02 5.724l-.069-.07-.092-.092.092.093c0 .023.047.046.07.07zM33.72 5.446c-.024-.023-.07-.046-.093-.093.023.024.046.07.093.093z" fill="#FFFAF7"/><path d="M.232 16.94v.047c0 .023 0 .07-.023.093v.208c0 .07-.024.14-.024.21 0 .069-.023.115-.023.184v.07c0 .07-.023.14-.023.209 0 .046 0 .116-.023.162v.371c0 .07-.023.162-.023.231V19.861C0 19.93 0 19.93 0 19.954v.255c.046 3.8 1.576 7.37 4.287 10.034a14.366 14.366 0 0011.936 4.033c.278-.023.533-.07.81-.116a16.494 16.494 0 01-5.028-4.705 15.75 15.75 0 01-1.275-2.178c-.093-.162-.162-.348-.232-.51 0-.023-.023-.046-.023-.046A16.644 16.644 0 019.061 20c0-3.407 1.02-6.674 2.967-9.479.44-.648.927-1.251 1.46-1.807 1.715-1.831 3.8-3.268 6.164-4.172.719-.278 1.437-.51 2.179-.672a15.938 15.938 0 013.8-.44c3.013 0 5.91.811 8.436 2.294l-.07-.07-.092-.092-.023-.023c-.023-.023-.07-.047-.093-.093-.023-.023-.07-.046-.093-.093l-.023-.023c-.046-.023-.07-.07-.116-.092l-.046-.047-.023-.023a1.007 1.007 0 00-.162-.14 1.007 1.007 0 01-.163-.138c-.023-.023-.046-.023-.046-.046-.046-.024-.07-.07-.116-.093l-.07-.07-.046-.046-.023-.023-.023-.023c-.046-.047-.093-.07-.14-.116-.022-.023-.069-.047-.092-.093a14.518 14.518 0 00-.324-.255c-.023-.023-.07-.046-.093-.07l-.046-.023-.023-.023h-.024l-.07-.046-.022-.023-.093-.07-.023-.023-.047-.046-.023-.024c-.023-.023-.07-.046-.092-.069l-.024-.023c-.092-.07-.162-.116-.255-.186-.046-.023-.07-.046-.115-.07l-.024-.022c-.046-.047-.116-.07-.162-.116-.023 0-.023-.023-.046-.023-.046-.024-.093-.047-.116-.07-.07-.046-.116-.07-.186-.116-.069-.046-.115-.07-.185-.116l-.093-.07c-.023 0-.023-.022-.046-.022s-.046-.024-.07-.024c-.023 0-.023-.023-.046-.023l-.139-.07-.023-.022c-.023 0-.023-.024-.046-.024-.047-.023-.093-.046-.116-.07h-.023c-.279-.161-.58-.3-.858-.463h-.023c-.07-.023-.14-.07-.186-.092l-.44-.186h-.023c-.209-.092-.394-.185-.58-.255-.046-.023-.092-.046-.138-.046h-.047l-.07-.023c-.022 0-.046-.023-.092-.023-.023 0-.023 0-.046-.023-.186-.07-.348-.14-.487-.186l-.093-.023h-.023l-.093-.023c-.255-.093-.486-.186-.764-.255h-.023c-.047-.023-.093-.023-.14-.046-.046-.024-.092-.024-.139-.047-.023 0-.07-.023-.092-.023-.116-.023-.209-.07-.325-.093h-.046c0-.139-.023-.139-.046-.139h-.047c-.208-.046-.417-.116-.649-.162-.116-.023-.255-.046-.37-.093-.21-.046-.44-.092-.65-.139-.069-.023-.162-.023-.231-.046-.07-.023-.162-.023-.232-.046-.046 0-.07 0-.116-.024-.046 0-.093-.023-.139-.023-.232-.023-.463-.07-.695-.092-.44-.047-.904-.07-1.344-.093C20.51 0 20.255 0 20 0c-.417 0-.858.023-1.275.046h-.139c-.463.024-.927.07-1.39.14-.093.023-.162.023-.255.046L.23 16.94z" fill="#005FA3"/><path d="M39.768 23.036v-.023c0-.023 0-.047.023-.093v-.023c0-.046.024-.07.024-.116v-.046-.023l.023-.116.023-.093c0-.093.023-.162.023-.232s.023-.139.023-.208c0-.07.024-.116.024-.163v-.046-.162c0-.047 0-.093.023-.163v-.023c0-.07.023-.139.023-.231 0-.07 0-.163.023-.232v-.07-.185-.301-.325V20 19.791a14.245 14.245 0 00-4.287-10.034 14.366 14.366 0 00-10.128-4.149c-.88 0-1.761.07-2.595.232a16.494 16.494 0 015.029 4.705c1.946 2.78 2.966 6.048 2.966 9.478 0 3.407-1.02 6.675-2.966 9.479a16.552 16.552 0 01-7.625 5.979 16.392 16.392 0 01-5.98 1.112c-3.012 0-5.909-.81-8.435-2.294h.023l.047.046.046.047.093.092c.046.047.116.116.185.163.046.046.093.07.116.115.07.07.139.14.232.209l.139.14.023.022.139.116.023.023c.047.023.07.07.116.093l.023.023.023.023c.024.023.07.07.116.093h.047c.023.023.07.046.092.07.116.092.209.162.325.255.023.023.046.046.07.046a.32.32 0 00.092.07c.023.023.023.023.046.023l.024.023c.046.023.092.07.139.092l.046.024c.023.023.046.023.07.046.023.023.069.046.092.07l.046.023c.093.07.163.115.255.185.047.023.07.046.116.07l.023.023.093.07.093.069c.046.023.093.07.162.093.046.023.116.069.162.092h.186l.231.209c.024.023.07.046.116.07.07.046.14.092.209.115.046.023.116.07.162.093.301.162.603.324.904.463.07.023.139.07.208.093 0 0 .024 0 .024.023.07.023.116.07.185.093.185.093.37.185.58.255l.138.07c.024 0 .024.023.047.023.07.023.116.046.185.07.162.069.325.115.487.184.046.024.116.047.162.07.255.093.51.185.742.255.046.023.093.023.139.046.07.024.139.047.232.07l.07.023c.092.023.184.046.254.07.046.023.093.023.14.046.555.139 1.111.278 1.668.37.07.024.139.024.231.047.093.023.163.023.232.046.07.023.162.023.232.023.927.14 1.854.186 2.804.186.927 0 1.877-.07 2.804-.185h.024c.069 0 .139-.024.231-.024l16.71-16.709.115.093z" fill="#222"/></svg><svg width="33" height="27" fill="none" viewBox="-5 -5 33 27" id="mail" y="50" xmlns="http://www.w3.org/2000/svg"><path d="M19.611 0H2.732A2.734 2.734 0 000 2.732v11.536A2.734 2.734 0 002.732 17h16.875a2.734 2.734 0 002.732-2.732V2.736A2.731 2.731 0 0019.611 0zm1.484 14.268c0 .818-.665 1.484-1.483 1.484H2.732a1.485 1.485 0 01-1.484-1.484V2.736c0-.818.666-1.483 1.484-1.483h16.875c.818 0 1.483.665 1.483 1.483v11.532h.005z" fill="#005FA3"/><path d="M14.088 8.357l5.463-4.9a.627.627 0 00.047-.882.627.627 0 00-.883-.047L11.18 9.29 9.71 7.978c-.005-.005-.01-.01-.01-.014a.923.923 0 00-.101-.088L3.619 2.524a.623.623 0 00-.883.05.623.623 0 00.051.883l5.528 4.941-5.505 5.154a.626.626 0 00.855.915L9.253 9.24l1.516 1.354a.624.624 0 00.832-.005l1.558-1.396 5.556 5.279a.623.623 0 10.86-.906l-5.487-5.21z" fill="#005FA3"/></svg><svg width="50" height="40" fill="none" viewBox="-5 -5 50 40" id="mail2" x="50" xmlns="http://www.w3.org/2000/svg"><path d="M34.608 0H4.822A4.825 4.825 0 000 4.82v20.36C0 27.838 2.162 30 4.82 30H34.6c2.66 0 4.82-2.162 4.82-4.82V4.828A4.82 4.82 0 0034.609 0zm2.619 25.18a2.621 2.621 0 01-2.618 2.618H4.82a2.621 2.621 0 01-2.619-2.619V4.83A2.621 2.621 0 014.821 2.21H34.6a2.621 2.621 0 012.618 2.619v20.35h.008z" fill="#fff"/><path d="M24.861 14.747l9.641-8.646c.449-.408.49-1.101.082-1.558a1.107 1.107 0 00-1.558-.081L19.731 16.395l-2.594-2.317c-.008-.008-.016-.016-.016-.024a1.642 1.642 0 00-.18-.155L6.387 4.454a1.1 1.1 0 00-1.558.09 1.1 1.1 0 00.09 1.557l9.755 8.72-9.715 9.094a1.106 1.106 0 001.51 1.615l9.86-9.225 2.676 2.39a1.1 1.1 0 001.468-.008l2.749-2.463 9.804 9.314c.212.204.49.302.759.302a1.1 1.1 0 00.758-1.9l-9.682-9.193z" fill="#fff"/></svg><svg width="28" height="19" fill="none" viewBox="-5 -5 28 19" id="phone" x="33" y="50" xmlns="http://www.w3.org/2000/svg"><path d="M15.401.065H2.026C.912.065 0 .335 0 .666v7.69c0 .33.912.6 2.026.6h13.375c1.114 0 2.026-.27 2.026-.6V.666c0-.33-.912-.6-2.026-.6zM6.574.498h4.28c.135 0 .244.033.244.073 0 .04-.11.073-.245.073H6.574C6.44.644 6.33.61 6.33.57c0-.04.11-.073.245-.073zm2.14 8.158c-.56 0-1.013-.135-1.013-.3 0-.167.453-.3 1.013-.3.56 0 1.013.133 1.013.3 0 .165-.454.3-1.013.3zm7.303-.811H1.41V1.018h14.607v6.827z" fill="#fff"/></svg><svg width="20" height="16" fill="none" viewBox="-5 -5 20 16" id="phone1" x="100" y="54" xmlns="http://www.w3.org/2000/svg"><path d="M8.837.52H1.163C.523.52 0 .675 0 .864v4.413c0 .19.523.344 1.163.344h7.674c.64 0 1.163-.155 1.163-.344V.864C10 .674 9.477.52 8.837.52zM3.772.768h2.456c.077 0 .14.019.14.042 0 .023-.063.042-.14.042H3.772c-.077 0-.14-.019-.14-.042 0-.023.063-.042.14-.042zM5 5.45c-.321 0-.581-.077-.581-.172 0-.096.26-.173.581-.173.321 0 .581.077.581.173 0 .095-.26.172-.581.172zm4.19-.465H.81V1.066h8.38v3.918z" fill="#005FA3"/></svg><svg width="27" height="27" fill="none" viewBox="-5 -5 27 27" id="placeholder" x="100" y="27" xmlns="http://www.w3.org/2000/svg"><path d="M8.488 0a6.237 6.237 0 00-6.23 6.23c0 1.579.994 3.808 2.956 6.628a44.451 44.451 0 002.902 3.723l.372.419.372-.42c.06-.066 1.47-1.661 2.903-3.722 1.961-2.82 2.956-5.05 2.956-6.628A6.237 6.237 0 008.489 0zm2.465 12.282a45.188 45.188 0 01-2.465 3.206A45.143 45.143 0 016.03 12.29C4.212 9.678 3.252 7.582 3.252 6.23A5.242 5.242 0 018.488.994a5.242 5.242 0 015.237 5.236c0 1.35-.959 3.444-2.772 6.052z" fill="#005FA3"/><path d="M8.488 2.303A3.681 3.681 0 004.811 5.98a3.681 3.681 0 003.677 3.677 3.681 3.681 0 003.678-3.677 3.681 3.681 0 00-3.678-3.677zm0 6.36A2.686 2.686 0 015.805 5.98a2.686 2.686 0 012.683-2.683 2.686 2.686 0 012.684 2.683 2.686 2.686 0 01-2.684 2.683z" fill="#005FA3"/></svg></svg>